<svg width="31" height="31" viewBox="0 0 31 31" fill="none" xmlns="http://www.w3.org/2000/svg">
<g clip-path="url(#clip0_24_277)">
<path d="M15.325 0.489807C18.1043 0.489807 20.6674 1.17465 23.0145 2.54433C25.3616 3.91401 27.22 5.77239 28.5896 8.11946C29.9593 10.4665 30.6442 13.0297 30.6442 15.809C30.6442 19.1467 29.6701 22.1487 27.722 24.8149C25.7738 27.4812 23.2572 29.3262 20.1721 30.3502C19.813 30.4167 19.5471 30.3701 19.3742 30.2106C19.2013 30.051 19.1149 29.8515 19.1149 29.6121C19.1149 29.5723 19.1182 29.0636 19.1249 28.0862C19.1315 27.1088 19.1349 26.2145 19.1349 25.4034C19.1349 24.1135 18.7891 23.1693 18.0976 22.5709C18.8556 22.4911 19.5371 22.3715 20.1422 22.2119C20.7472 22.0523 21.3722 21.793 22.0172 21.434C22.6621 21.0749 23.2007 20.6328 23.6329 20.1075C24.065 19.5822 24.4174 18.8841 24.69 18.0131C24.9626 17.1421 25.0989 16.1414 25.0989 15.0111C25.0989 13.4286 24.5737 12.059 23.5231 10.902C24.0152 9.69193 23.962 8.33555 23.3636 6.83289C22.9912 6.71321 22.4527 6.78635 21.7479 7.05231C21.0431 7.31826 20.4314 7.61082 19.9128 7.92997L19.1548 8.40869C17.9181 8.06295 16.6415 7.89007 15.325 7.89007C14.0085 7.89007 12.7319 8.06295 11.4952 8.40869C11.2825 8.26241 10.9999 8.08289 10.6475 7.87013C10.2951 7.65736 9.7399 7.40138 8.98192 7.10217C8.22395 6.80297 7.65879 6.71321 7.28644 6.83289C6.68804 8.33555 6.63485 9.69193 7.12687 10.902C6.07634 12.059 5.55107 13.4286 5.55107 15.0111C5.55107 16.1414 5.68738 17.1387 5.95998 18.0031C6.23259 18.8675 6.58166 19.5656 7.00719 20.0975C7.43272 20.6294 7.96796 21.0749 8.61291 21.434C9.25785 21.793 9.88285 22.0523 10.4879 22.2119C11.093 22.3715 11.7745 22.4911 12.5325 22.5709C12.0138 23.0496 11.688 23.7345 11.5551 24.6254C11.2758 24.7584 10.9766 24.8582 10.6575 24.9246C10.3383 24.9911 9.95932 25.0244 9.52049 25.0244C9.08166 25.0244 8.64615 24.8814 8.21397 24.5955C7.78179 24.3096 7.41277 23.8941 7.10692 23.3488C6.85426 22.9233 6.53179 22.5776 6.1395 22.3116C5.74722 22.0457 5.41809 21.8861 5.15214 21.8329L4.7532 21.7731C4.47394 21.7731 4.28113 21.803 4.17474 21.8628C4.06836 21.9227 4.03511 21.9991 4.07501 22.0922C4.1149 22.1853 4.17474 22.2784 4.25453 22.3715C4.33432 22.4645 4.42075 22.5443 4.51384 22.6108L4.65347 22.7106C4.94602 22.8435 5.23525 23.0962 5.52115 23.4685C5.80706 23.8409 6.0165 24.18 6.14948 24.4858L6.34894 24.9446C6.52182 25.4499 6.81437 25.8588 7.2266 26.1713C7.63884 26.4838 8.08432 26.6833 8.56304 26.7697C9.04176 26.8562 9.50387 26.9027 9.94934 26.9094C10.3948 26.916 10.7638 26.8927 11.0564 26.8395L11.5152 26.7598C11.5152 27.2651 11.5185 27.8535 11.5251 28.525C11.5318 29.1966 11.5351 29.559 11.5351 29.6121C11.5351 29.8515 11.4487 30.051 11.2758 30.2106C11.1029 30.3701 10.837 30.4167 10.4779 30.3502C7.39283 29.3262 4.87621 27.4812 2.92807 24.8149C0.979929 22.1487 0.00585938 19.1467 0.00585938 15.809C0.00585938 13.0297 0.6907 10.4665 2.06038 8.11946C3.43006 5.77239 5.28844 3.91401 7.63551 2.54433C9.98259 1.17465 12.5458 0.489807 15.325 0.489807ZM5.81038 22.4911C5.85027 22.3981 5.80373 22.3183 5.67075 22.2518C5.53777 22.2119 5.45134 22.2252 5.41144 22.2917C5.37155 22.3848 5.41809 22.4645 5.55107 22.531C5.67075 22.6108 5.75719 22.5975 5.81038 22.4911ZM6.42873 23.1693C6.52182 23.1028 6.50852 22.9965 6.38884 22.8502C6.25586 22.7305 6.14948 22.7106 6.06969 22.7903C5.9766 22.8568 5.9899 22.9632 6.10958 23.1095C6.24256 23.2425 6.34894 23.2624 6.42873 23.1693ZM7.02714 24.0669C7.14682 23.9738 7.14682 23.8475 7.02714 23.6879C6.92075 23.5151 6.80772 23.4752 6.68804 23.5683C6.56836 23.6348 6.56836 23.7544 6.68804 23.9273C6.80772 24.1002 6.92075 24.1467 7.02714 24.0669ZM7.8649 24.9047C7.97129 24.7983 7.94469 24.672 7.78512 24.5257C7.62554 24.3661 7.49256 24.3462 7.38618 24.4659C7.2665 24.5723 7.29309 24.6986 7.46597 24.8449C7.62554 25.0044 7.75852 25.0244 7.8649 24.9047ZM9.00187 25.4034C9.04176 25.2571 8.95533 25.1507 8.74256 25.0842C8.54309 25.031 8.41676 25.0776 8.36357 25.2238C8.31038 25.3701 8.39682 25.4699 8.62288 25.5231C8.82235 25.6028 8.94868 25.5629 9.00187 25.4034ZM10.2585 25.5031C10.2585 25.3302 10.1455 25.2571 9.91942 25.2837C9.70666 25.2837 9.60027 25.3568 9.60027 25.5031C9.60027 25.676 9.71331 25.7491 9.93937 25.7225C10.1521 25.7225 10.2585 25.6494 10.2585 25.5031ZM11.4154 25.3036C11.3888 25.1574 11.2692 25.0975 11.0564 25.1241C10.8436 25.164 10.7505 25.2637 10.7771 25.4233C10.8037 25.5829 10.9234 25.6361 11.1362 25.5829C11.3489 25.5297 11.442 25.4366 11.4154 25.3036Z" fill="white"/>
</g>
<defs>
<clipPath id="clip0_24_277">
<rect width="30.65" height="30" fill="white" transform="translate(0 0.489807)"/>
</clipPath>
</defs>
</svg>
