<svg width="30" height="31" viewBox="0 0 30 31" fill="none" xmlns="http://www.w3.org/2000/svg">
<g clip-path="url(#clip0_24_279)">
<path fill-rule="evenodd" clip-rule="evenodd" d="M0 15.5736C0 23.0311 5.41625 29.2323 12.5 30.4898V19.6561H8.75V15.4898H12.5V12.1561C12.5 8.40606 14.9162 6.32356 18.3337 6.32356C19.4162 6.32356 20.5838 6.48981 21.6663 6.65606V10.4898H19.75C17.9163 10.4898 17.5 11.4061 17.5 12.5736V15.4898H21.5L20.8337 19.6561H17.5V30.4898C24.5837 29.2323 30 23.0323 30 15.5736C30 7.27731 23.25 0.489807 15 0.489807C6.75 0.489807 0 7.27731 0 15.5736Z" fill="white"/>
</g>
<defs>
<clipPath id="clip0_24_279">
<rect width="30" height="30" fill="white" transform="translate(0 0.489807)"/>
</clipPath>
</defs>
</svg>
