<svg width="30" height="30" viewBox="0 0 30 30" fill="none" xmlns="http://www.w3.org/2000/svg">
<path d="M25.8105 12.9609H15.2256V17.3115H21.2725C21.0117 18.7178 20.2207 19.9072 19.0283 20.7041C18.0205 21.3779 16.7344 21.7764 15.2227 21.7764C12.2959 21.7764 9.82031 19.7988 8.93555 17.1416C8.71289 16.4678 8.58398 15.7471 8.58398 15.0059C8.58398 14.2646 8.71289 13.5439 8.93555 12.8701C9.82324 10.2158 12.2988 8.23828 15.2256 8.23828C16.875 8.23828 18.3545 8.80664 19.5205 9.91992L22.7432 6.69434C20.7949 4.87793 18.2549 3.76465 15.2256 3.76465C10.834 3.76465 7.03418 6.28418 5.18555 9.95801C4.42383 11.4756 3.99023 13.1924 3.99023 15.0088C3.99023 16.8252 4.42383 18.5391 5.18555 20.0566C7.03418 23.7305 10.834 26.25 15.2256 26.25C18.2607 26.25 20.8037 25.2422 22.6611 23.5254C24.7852 21.5684 26.0127 18.6855 26.0127 15.2607C26.0127 14.4639 25.9424 13.6992 25.8105 12.9609Z" fill="white"/>
</svg>
