<svg width="50" height="50" viewBox="0 0 50 50" fill="none" xmlns="http://www.w3.org/2000/svg">
<path d="M39.5833 45.8334H10.4167C9.86414 45.8334 9.33424 45.6139 8.94354 45.2232C8.55284 44.8325 8.33334 44.3026 8.33334 43.75V23.6605C8.36543 23.1499 8.58243 22.6685 8.94376 22.3063L23.5271 7.72295C23.7206 7.52925 23.9503 7.37559 24.2033 7.27074C24.4562 7.1659 24.7273 7.11194 25.0011 7.11194C25.2748 7.11194 25.5459 7.1659 25.7988 7.27074C26.0518 7.37559 26.2815 7.52925 26.475 7.72295L41.0583 22.3063C41.252 22.4995 41.4055 22.7291 41.5099 22.9819C41.6143 23.2347 41.6676 23.5057 41.6667 23.7792V43.75C41.6667 44.3026 41.4472 44.8325 41.0565 45.2232C40.6658 45.6139 40.1359 45.8334 39.5833 45.8334ZM25 12.1417L12.5 24.6417V41.6667H37.5V24.6417L25 12.1417V12.1417ZM21.875 38.6646L16.2375 33.0396L19.1667 30.0855L21.875 32.7771L30.8333 23.8355L33.775 26.7855L21.875 38.6625V38.6646Z" fill="white"/>
</svg>
