<svg width="30" height="37" viewBox="0 0 30 37" fill="none" xmlns="http://www.w3.org/2000/svg">
<path d="M20.9091 18.6364C20.9091 18.2747 20.7654 17.9279 20.5097 17.6721C20.254 17.4164 19.9071 17.2727 19.5455 17.2727H10.4545C10.0929 17.2727 9.74604 17.4164 9.49031 17.6721C9.23458 17.9279 9.09091 18.2747 9.09091 18.6364V19.5455C9.09091 21.3636 11.6055 22.7273 15 22.7273C18.3945 22.7273 20.9091 21.3636 20.9091 19.5455V18.6364ZM18.1818 12.2636C18.1818 10.5091 16.7582 9.09091 15 9.09091C13.2418 9.09091 11.8182 10.5073 11.8182 12.2636C11.8182 13.1075 12.1534 13.9168 12.7501 14.5135C13.3468 15.1102 14.1561 15.4455 15 15.4455C15.8439 15.4455 16.6532 15.1102 17.2499 14.5135C17.8466 13.9168 18.1818 13.1075 18.1818 12.2636V12.2636ZM0 4.54545C0 3.33992 0.478895 2.18377 1.33133 1.33133C2.18377 0.478895 3.33993 0 4.54545 0H25.4545C26.0515 0 26.6425 0.117572 27.194 0.346002C27.7455 0.574433 28.2466 0.909248 28.6687 1.33133C29.0908 1.75342 29.4256 2.2545 29.654 2.80598C29.8824 3.35746 30 3.94854 30 4.54545V30.4545C30 30.8162 29.8563 31.1631 29.6006 31.4188C29.3449 31.6745 28.998 31.8182 28.6364 31.8182H2.72727C2.72727 32.3004 2.91883 32.7629 3.25981 33.1038C3.60078 33.4448 4.06324 33.6364 4.54545 33.6364H28.6364C28.998 33.6364 29.3449 33.78 29.6006 34.0358C29.8563 34.2915 30 34.6383 30 35C30 35.3617 29.8563 35.7085 29.6006 35.9642C29.3449 36.22 28.998 36.3636 28.6364 36.3636H4.54545C3.33993 36.3636 2.18377 35.8847 1.33133 35.0323C0.478895 34.1799 0 33.0237 0 31.8182V4.54545ZM2.72727 4.54545V29.0909H27.2727V4.54545C27.2727 4.06324 27.0812 3.60078 26.7402 3.25981C26.3992 2.91883 25.9368 2.72727 25.4545 2.72727H4.54545C4.06324 2.72727 3.60078 2.91883 3.25981 3.25981C2.91883 3.60078 2.72727 4.06324 2.72727 4.54545Z" fill="white"/>
</svg>
