<svg width="30" height="25" viewBox="0 0 30 25" fill="none" xmlns="http://www.w3.org/2000/svg">
<g clip-path="url(#clip0_24_292)">
<path d="M29.9985 2.98213C28.8753 3.47974 27.6838 3.80638 26.4638 3.95117C27.7346 3.18953 28.7103 1.98343 29.1697 0.546387C27.9617 1.26325 26.64 1.76833 25.2618 2.0398C24.1391 0.84378 22.5398 0.0963135 20.7696 0.0963135C17.3708 0.0963135 14.6152 2.85183 14.6152 6.2504C14.6152 6.73281 14.6697 7.20246 14.7746 7.653C9.65982 7.39626 5.12511 4.94623 2.08966 1.22284C1.56002 2.13178 1.25654 3.18906 1.25654 4.31676C1.25654 6.45194 2.34311 8.33555 3.99436 9.43923C3.01705 9.40862 2.06124 9.14466 1.20674 8.66938C1.20639 8.69516 1.20639 8.72094 1.20639 8.74684C1.20639 11.7286 3.32774 14.216 6.14301 14.7814C5.23676 15.0279 4.28616 15.0639 3.36383 14.8869C4.14692 17.3319 6.41978 19.1111 9.11272 19.1609C7.00648 20.8114 4.3528 21.7953 1.46956 21.7953C0.972737 21.7953 0.482941 21.7661 0.00146484 21.7093C2.72499 23.4555 5.95987 24.4743 9.43531 24.4743C20.7553 24.4743 26.9454 15.0966 26.9454 6.96412C26.9454 6.69719 26.9395 6.43179 26.9276 6.16791C28.1324 5.29692 29.1723 4.21812 29.9985 2.98213" fill="white"/>
</g>
<defs>
<clipPath id="clip0_24_292">
<rect width="30" height="24.4898" fill="white"/>
</clipPath>
</defs>
</svg>
